<svg width="100" height="100" viewBox="0 0 100 100" fill="none" xmlns="http://www.w3.org/2000/svg">
<g clip-path="url(#clip0_6_253)">
<path d="M72.9216 61.5541L72.9011 61.9528L73.2854 62.0611C80.2981 64.0369 85.4375 70.4814 85.4375 78.125C85.4375 87.3413 77.9663 94.8125 68.75 94.8125C65.411 94.8125 63.1589 93.7033 60.9103 92.5486C60.845 92.5151 60.7797 92.4815 60.7144 92.4479C58.5276 91.3236 56.2922 90.1743 53.125 90.1743C49.9577 90.1743 47.7224 91.3236 45.5356 92.4479C45.4703 92.4815 45.405 92.5151 45.3397 92.5486C43.0911 93.7033 40.839 94.8125 37.5 94.8125C28.2837 94.8125 20.8125 87.3413 20.8125 78.125C20.8125 70.4814 25.9519 64.0369 32.9646 62.0611L33.3489 61.9528L33.3284 61.5541C33.3178 61.3495 33.3125 61.1439 33.3125 60.9375C33.3125 51.7757 40.7538 44.25 53.125 44.25C65.4962 44.25 72.9375 51.7757 72.9375 60.9375C72.9375 61.1439 72.9322 61.3495 72.9216 61.5541Z" fill="url(#paint0_linear_6_253)" stroke="black"/>
<path d="M48.9745 19.3118C50.4352 22.9273 51.4396 26.0238 50.94 28.7534C50.4521 31.4198 48.4916 33.8723 43.6323 36.0984C38.7984 38.3128 35.703 37.9048 33.4634 36.2247C31.1545 34.4926 29.6316 31.3325 28.1708 27.717C27.6578 26.4474 27.55 25.1944 27.6314 23.6603C27.6797 22.751 27.7908 21.7785 27.9187 20.6596C28.0112 19.8497 28.1125 18.9631 28.2051 17.9682C28.4201 15.6569 28.7646 13.8953 29.4795 12.5349C30.1807 11.2003 31.258 10.2161 33.0269 9.50143C35.8294 8.36914 39.0796 9.02323 42.0304 10.8939C44.9771 12.762 47.5585 15.8072 48.9745 19.3118Z" fill="url(#paint1_linear_6_253)" stroke="black"/>
<path d="M59.4191 19.3112C57.9583 22.9267 56.954 26.0233 57.4535 28.7528C57.9415 31.4192 59.902 33.8718 64.7612 36.0978C69.5952 38.3122 72.6905 37.9042 74.9301 36.2241C77.2391 34.492 78.762 31.3319 80.2227 27.7164C80.7357 26.4468 80.8436 25.1938 80.7621 23.6597C80.7138 22.7504 80.6027 21.778 80.4749 20.6591C80.3824 19.8491 80.2811 18.9625 80.1885 17.9676C79.9734 15.6563 79.6289 13.8948 78.9141 12.5343C78.2128 11.1997 77.1355 10.2155 75.3667 9.50085C72.5642 8.36856 69.3139 9.02265 66.3632 10.8933C63.4164 12.7614 60.835 15.8066 59.4191 19.3112Z" fill="url(#paint2_linear_6_253)" stroke="black"/>
<path d="M25.4209 39.4322C27.9499 41.9613 29.5004 44.9601 29.9807 47.7459C30.4613 50.5333 29.8679 53.0606 28.183 54.7455C26.4981 56.4304 23.9708 57.0238 21.1834 56.5432C18.3976 56.0629 15.3988 54.5124 12.8697 51.9834C10.3407 49.4543 8.79023 46.4556 8.30992 43.6697C7.82933 40.8823 8.42272 38.355 10.1076 36.6701C11.7925 34.9852 14.3198 34.3918 17.1072 34.8724C19.8931 35.3527 22.8918 36.9032 25.4209 39.4322Z" fill="url(#paint3_linear_6_253)" stroke="black"/>
<path d="M92.4401 54.1673C89.7822 56.5605 86.7064 57.9519 83.8992 58.2858C81.0905 58.6198 78.5976 57.895 77.0032 56.1242C75.4088 54.3535 74.9485 51.7985 75.5744 49.0401C76.1998 46.2832 77.9051 43.3697 80.563 40.9765C83.221 38.5833 86.2968 37.1919 89.1039 36.858C91.9127 36.524 94.4055 37.2488 95.9999 39.0196C97.5943 40.7903 98.0546 43.3452 97.4288 46.1037C96.8033 48.8606 95.098 51.7741 92.4401 54.1673Z" fill="url(#paint4_linear_6_253)" stroke="black"/>
</g>
<defs>
<linearGradient id="paint0_linear_6_253" x1="53.125" y1="43.75" x2="53.125" y2="95.3125" gradientUnits="userSpaceOnUse">
<stop stop-color="#FFC700"/>
<stop offset="0.9999" stop-color="#E7B70E" stop-opacity="0.979167"/>
<stop offset="1" stop-color="#FFC700" stop-opacity="0"/>
</linearGradient>
<linearGradient id="paint1_linear_6_253" x1="32.74" y1="9.07807" x2="43.8501" y2="36.5765" gradientUnits="userSpaceOnUse">
<stop stop-color="#FFC700"/>
<stop offset="0.9999" stop-color="#E7B70E" stop-opacity="0.979167"/>
<stop offset="1" stop-color="#FFC700" stop-opacity="0"/>
</linearGradient>
<linearGradient id="paint2_linear_6_253" x1="75.6536" y1="9.07749" x2="64.5435" y2="36.576" gradientUnits="userSpaceOnUse">
<stop stop-color="#FFC700"/>
<stop offset="0.9999" stop-color="#E7B70E" stop-opacity="0.979167"/>
<stop offset="1" stop-color="#FFC700" stop-opacity="0"/>
</linearGradient>
<linearGradient id="paint3_linear_6_253" x1="9.75405" y1="36.3166" x2="28.5366" y2="55.0991" gradientUnits="userSpaceOnUse">
<stop stop-color="#FFC700"/>
<stop offset="0.9999" stop-color="#E7B70E" stop-opacity="0.979167"/>
<stop offset="1" stop-color="#FFC700" stop-opacity="0"/>
</linearGradient>
<linearGradient id="paint4_linear_6_253" x1="96.3715" y1="38.685" x2="76.6317" y2="56.4588" gradientUnits="userSpaceOnUse">
<stop stop-color="#FFC700"/>
<stop offset="0.9999" stop-color="#E7B70E" stop-opacity="0.979167"/>
<stop offset="1" stop-color="#FFC700" stop-opacity="0"/>
</linearGradient>
<clipPath id="clip0_6_253">
<rect width="100" height="100" fill="white"/>
</clipPath>
</defs>
</svg>
