<svg width="100" height="100" viewBox="0 0 100 100" fill="none" xmlns="http://www.w3.org/2000/svg">
<g id="city-river-svgrepo-com 1" clip-path="url(#clip0_6_260)">
<path id="Vector" d="M20.4082 29.1385C18.5297 29.1385 17.0068 27.6156 17.0068 25.7371V22.109C17.0068 20.2305 18.5297 18.7076 20.4082 18.7076C22.2867 18.7076 23.8096 20.2305 23.8096 22.109V25.7371C23.8094 27.6156 22.2865 29.1385 20.4082 29.1385Z" fill="#2A5637"/>
<path id="Vector_2" d="M20.4082 29.1385C18.5297 29.1385 17.0068 27.6156 17.0068 25.7371V22.109C17.0068 20.2305 18.5297 18.7076 20.4082 18.7076V29.1385Z" fill="#4E7F4B"/>
<path id="Vector_3" d="M27.6643 23.923H13.152C11.2734 23.923 9.75059 25.4459 9.75059 27.3244V43.1975H3.40137C1.52285 43.1975 0 44.7203 0 46.5988C0 48.4773 1.52285 50.0002 3.40137 50.0002H11.7301C12.3004 51.0791 13.434 51.8142 14.7391 51.8142H27.6643C29.5428 51.8142 31.0656 50.2914 31.0656 48.4129V27.3244C31.0656 25.4459 29.5428 23.923 27.6643 23.923Z" fill="#F5CA47"/>
<path id="Vector_4" d="M20.4082 23.923H13.152C11.2734 23.923 9.75059 25.4459 9.75059 27.3244V43.1975H3.40137C1.52285 43.1975 0 44.7203 0 46.5988C0 48.4773 1.52285 50.0002 3.40137 50.0002H11.7301C12.3004 51.0791 13.434 51.8142 14.7391 51.8142H20.408L20.4082 23.923Z" fill="#F7F4A3"/>
<path id="Vector_5" d="M99.8844 44.8135C99.4867 43.3256 98.1385 42.2906 96.5984 42.2906H93.1971V34.1273C93.1971 32.2488 91.6742 30.726 89.7957 30.726H81.8592C79.9807 30.726 78.4578 32.2488 78.4578 34.1273V50.0004C78.4578 51.8789 79.9807 53.4018 81.8592 53.4018H89.1154C89.7111 53.4018 90.2963 53.2453 90.8125 52.9482L98.2955 48.6398C99.6305 47.8709 100.282 46.3016 99.8844 44.8135Z" fill="#F5CA47"/>
<path id="Vector_6" d="M70.5213 27.5512C68.6428 27.5512 67.1199 26.0283 67.1199 24.1498V17.8006C67.1199 15.9221 68.6428 14.3992 70.5213 14.3992C72.3998 14.3992 73.9227 15.9221 73.9227 17.8006V24.1498C73.9227 26.0283 72.3998 27.5512 70.5213 27.5512Z" fill="#2A5637"/>
<path id="Vector_7" d="M70.5213 27.5512C68.6428 27.5512 67.1199 26.0283 67.1199 24.1498V17.8006C67.1199 15.9221 68.6428 14.3992 70.5213 14.3992V27.5512Z" fill="#4E7F4B"/>
<path id="Vector_8" d="M80.1832 21.8822H60.4322C58.5537 21.8822 57.1424 23.3955 57.1424 25.274V49.1543C57.1424 50.2412 57.6061 51.2627 58.4844 51.9031C59.0736 52.3326 59.7488 52.5557 60.4604 52.5557C60.8094 52.5557 61.1465 52.502 61.4871 52.3924L81.2752 46.0432C82.6818 45.591 83.6729 44.2824 83.6729 42.8051V25.274C83.6733 23.3957 82.0619 21.8822 80.1832 21.8822Z" fill="#E56C1E"/>
<path id="Vector_9" d="M70.408 21.8822H60.4326C58.5541 21.8822 57.1428 23.3955 57.1428 25.274V49.1543C57.1428 50.2412 57.6064 51.2627 58.4847 51.9031C59.074 52.3326 59.7492 52.5557 60.4607 52.5557C60.8097 52.5557 61.1469 52.502 61.4875 52.3924L70.2947 51.8141L70.408 21.8822Z" fill="#F2BA57"/>
<path id="Vector_10" d="M43.3975 9.86426H28.0904C26.2119 9.86426 24.7166 11.4482 24.7166 13.3268V44.9748C24.7166 46.7914 26.1305 48.2873 27.9449 48.3723L43.2451 49.0894C43.2984 49.092 43.3481 49.0934 43.4012 49.0934C44.2735 49.0934 45.0701 48.7578 45.7041 48.1527C46.3768 47.5107 46.7123 46.6217 46.7123 45.692V13.3268C46.7119 11.448 45.2758 9.86426 43.3975 9.86426Z" fill="#E56C1E"/>
<path id="Vector_11" d="M35.0289 9.86426H28.0904C26.2119 9.86426 24.7166 11.4482 24.7166 13.3268V44.9748C24.7166 46.7914 26.1305 48.2873 27.9449 48.3723L35.0287 48.7043C35.0822 48.7066 35.0289 9.86426 35.0289 9.86426Z" fill="#F2BA57"/>
<path id="Vector_12" d="M58.7045 1.24747H43.3975C41.5189 1.24747 39.9092 2.77032 39.9092 4.64883V44.9746C39.9092 46.8531 41.4754 48.376 43.3539 48.376C45.2324 48.376 56.8387 48.3854 58.7172 48.3854C60.5957 48.3854 62.1314 46.8533 62.1314 44.975V4.64883C62.1314 2.77032 60.5828 1.24747 58.7045 1.24747Z" fill="#F5CA47"/>
<path id="Vector_13" d="M51.0203 1.24747H43.3975C41.5189 1.24747 39.9092 2.77032 39.9092 4.64883V44.9746C39.9092 46.8531 41.4754 48.376 43.3539 48.376C45.2324 48.376 51.0203 48.3854 51.0203 48.3854V1.24747Z" fill="#F7F4A3"/>
<path id="Vector_14" d="M27.3242 33.0547C19.0758 33.0547 14.6258 46.8963 14.6258 52.5559C14.6258 59.5576 20.3221 65.2543 27.3242 65.2543C34.3264 65.2543 40.0227 59.5576 40.0227 52.5559C40.0227 46.8961 35.5727 33.0547 27.3242 33.0547Z" fill="#489B6D"/>
<path id="Vector_15" d="M27.2107 33.0547C19.0475 33.0547 14.5123 46.8963 14.5123 52.5559C14.5123 59.5576 20.408 65.2543 27.2107 65.2543V33.0547Z" fill="#A2CE86"/>
<path id="Vector_16" d="M50.4533 33.0547C42.2049 33.0547 37.7549 46.8963 37.7549 52.5559C37.7549 59.5576 43.4512 65.2543 50.4533 65.2543C57.4555 65.2543 63.1518 59.5576 63.1518 52.5559C63.1518 46.8961 58.702 33.0547 50.4533 33.0547Z" fill="#489B6D"/>
<path id="Vector_17" d="M50.34 33.0547C42.1768 33.0547 37.6416 46.8963 37.6416 52.5559C37.6416 59.5576 43.5373 65.2543 50.34 65.2543V33.0547Z" fill="#A2CE86"/>
<path id="Vector_18" d="M73.5826 33.0547C65.3342 33.0547 60.8842 46.8963 60.8842 52.5559C60.8842 59.5576 66.5805 65.2543 73.5826 65.2543C80.5848 65.2543 86.2811 59.5576 86.2811 52.5559C86.2811 46.8961 81.8311 33.0547 73.5826 33.0547Z" fill="#489B6D"/>
<path id="Vector_19" d="M73.4691 33.0547C65.3058 33.0547 60.7707 46.8963 60.7707 52.5559C60.7707 59.5576 66.6664 65.2543 73.4691 65.2543V33.0547Z" fill="#A2CE86"/>
<path id="Vector_20" d="M15.1928 84.9207C13.3143 84.9207 11.7914 83.3979 11.7914 81.5193V70.1815C11.7914 68.3029 13.3143 66.7801 15.1928 66.7801C17.0713 66.7801 18.5941 68.3029 18.5941 70.1815V81.5193C18.5941 83.3979 17.0711 84.9207 15.1928 84.9207Z" fill="#2A5637"/>
<path id="Vector_21" d="M15.1928 84.9207C13.3143 84.9207 11.7914 83.3979 11.7914 81.5193V70.1815C11.7914 68.3029 13.3143 66.7801 15.1928 66.7801V84.9207Z" fill="#4E7F4B"/>
<path id="Vector_22" d="M37.6416 84.9207C35.7631 84.9207 34.2402 83.3979 34.2402 81.5193V70.1815C34.2402 68.3029 35.7631 66.7801 37.6416 66.7801C39.5201 66.7801 41.043 68.3029 41.043 70.1815V81.5193C41.043 83.3979 39.5201 84.9207 37.6416 84.9207Z" fill="#2A5637"/>
<path id="Vector_23" d="M37.6416 84.9207C35.7631 84.9207 34.2402 83.3979 34.2402 81.5193V70.1815C34.2402 68.3029 35.7631 66.7801 37.6416 66.7801V84.9207Z" fill="#4E7F4B"/>
<path id="Vector_24" d="M60.0906 84.9207C58.2121 84.9207 56.6893 83.3979 56.6893 81.5193V70.1815C56.6893 68.3029 58.2121 66.7801 60.0906 66.7801C61.9692 66.7801 63.492 68.3029 63.492 70.1815V81.5193C63.492 83.3979 61.969 84.9207 60.0906 84.9207Z" fill="#2A5637"/>
<path id="Vector_25" d="M60.0906 84.9207C58.2121 84.9207 56.6893 83.3979 56.6893 81.5193V70.1815C56.6893 68.3029 58.2121 66.7801 60.0906 66.7801V84.9207Z" fill="#4E7F4B"/>
<path id="Vector_26" d="M82.5395 84.9207C80.6609 84.9207 79.1381 83.3979 79.1381 81.5193V70.1815C79.1381 68.3029 80.6609 66.7801 82.5395 66.7801C84.418 66.7801 85.9408 68.3029 85.9408 70.1815V81.5193C85.9408 83.3979 84.418 84.9207 82.5395 84.9207Z" fill="#2A5637"/>
<path id="Vector_27" d="M82.5395 84.9207C80.6609 84.9207 79.1381 83.3979 79.1381 81.5193V70.1815C79.1381 68.3029 80.6609 66.7801 82.5395 66.7801V84.9207Z" fill="#4E7F4B"/>
<path id="Vector_28" d="M15.306 41.4445C7.05761 41.4445 2.6076 55.2861 2.6076 60.9457C2.6076 67.9474 8.30389 73.6441 15.306 73.6441C22.3082 73.6441 28.0045 67.9474 28.0045 60.9457C28.0045 55.2861 23.5547 41.4445 15.306 41.4445Z" fill="#007871"/>
<path id="Vector_29" d="M15.1928 41.4445C7.02948 41.4445 2.49432 55.2861 2.49432 60.9457C2.49432 67.9474 8.39003 73.6441 15.1928 73.6441V41.4445Z" fill="#489B6D"/>
<path id="Vector_30" d="M37.7551 41.4445C29.5066 41.4445 25.0566 55.2861 25.0566 60.9457C25.0566 67.9474 30.7529 73.6441 37.7551 73.6441C44.7572 73.6441 50.4535 67.9474 50.4535 60.9457C50.4533 55.2861 46.0035 41.4445 37.7551 41.4445Z" fill="#007871"/>
<path id="Vector_31" d="M37.6416 41.4445C29.4783 41.4445 24.9432 55.2861 24.9432 60.9457C24.9432 67.9474 30.8389 73.6441 37.6416 73.6441V41.4445Z" fill="#489B6D"/>
<path id="Vector_32" d="M60.2039 41.4445C51.9555 41.4445 47.5055 55.2861 47.5055 60.9457C47.5055 67.9474 53.2017 73.6441 60.2039 73.6441C67.206 73.6441 72.9023 67.9474 72.9023 60.9457C72.9023 55.2861 68.4525 41.4445 60.2039 41.4445Z" fill="#007871"/>
<path id="Vector_33" d="M60.0906 41.4445C51.9273 41.4445 47.3922 55.2861 47.3922 60.9457C47.3922 67.9474 53.2879 73.6441 60.0906 73.6441V41.4445Z" fill="#489B6D"/>
<path id="Vector_34" d="M82.6529 41.4445C74.4045 41.4445 69.9545 55.2861 69.9545 60.9457C69.9545 67.9474 75.6508 73.6441 82.6529 73.6441C89.6551 73.6441 95.3514 67.9474 95.3514 60.9457C95.3512 55.2861 90.9014 41.4445 82.6529 41.4445Z" fill="#007871"/>
<path id="Vector_35" d="M82.5394 41.4445C74.3762 41.4445 69.841 55.2861 69.841 60.9457C69.841 67.9474 75.7367 73.6441 82.5394 73.6441V41.4445Z" fill="#489B6D"/>
<path id="Vector_36" d="M33.8277 88.549C24.0838 88.549 15.6824 87.734 8.81874 86.1207C6.99022 85.6908 5.85624 83.86 6.28593 82.0314C6.71562 80.2029 8.54706 79.0686 10.375 79.4986C17.3795 81.1449 26.2293 81.8939 36.6799 81.7228C42.3105 81.6312 47.9928 80.7889 54.0086 79.8971C60.8293 78.8861 67.8822 77.8406 76.0971 77.6184C80.4861 77.5 85.0213 77.6004 89.5781 77.9172C91.452 78.0477 92.8656 79.6723 92.7353 81.5465C92.6053 83.4207 90.9789 84.8326 89.106 84.7037C84.7666 84.402 80.4516 84.3061 76.2807 84.4187C68.4748 84.6299 61.6277 85.6449 55.0061 86.6262C48.7635 87.5516 42.8668 88.4258 36.7904 88.5248C35.79 88.5408 34.8018 88.549 33.8277 88.549Z" fill="#0EABD9"/>
<path id="Vector_37" d="M87.5943 94.8049C87.5287 94.8049 87.4631 94.8031 87.3969 94.7992C83.6396 94.584 79.9002 94.5244 76.281 94.6227C76.2498 94.6233 76.2187 94.6238 76.1875 94.6238C74.3513 94.6238 72.839 93.161 72.7892 91.3143C72.7383 89.4365 74.2197 87.8731 76.0974 87.8223C79.9058 87.7194 83.8387 87.7815 87.7861 88.0076C89.6617 88.1151 91.0949 89.7223 90.9875 91.5979C90.8834 93.4069 89.384 94.8049 87.5943 94.8049Z" fill="#91C0F1"/>
<path id="Vector_38" d="M62.2465 95.7723C60.5607 95.7723 59.0975 94.5201 58.8771 92.8041C58.6377 90.9408 59.9543 89.2365 61.8176 88.9971C63.3627 88.7986 64.7947 88.6314 66.1951 88.4867C68.0611 88.2918 69.7352 89.6506 69.9289 91.5193C70.1225 93.3879 68.7646 95.0594 66.8963 95.2531C65.5518 95.3926 64.174 95.5533 62.6846 95.7445C62.5371 95.7631 62.391 95.7723 62.2465 95.7723Z" fill="#0EABD9"/>
<path id="Vector_39" d="M33.8699 98.7525C28.9439 98.7525 24.3205 98.5426 20.0897 98.1258C18.2203 97.9416 16.8539 96.2767 17.0381 94.4074C17.2223 92.5381 18.8834 91.1723 20.7564 91.3556C25.5561 91.8285 30.9117 92.0205 36.6797 91.9264C41.7178 91.8443 46.8217 91.1535 51.617 90.4531C53.475 90.1826 55.2027 91.4685 55.4744 93.3273C55.7461 95.1861 54.459 96.9131 52.6002 97.1846C47.585 97.917 42.2328 98.6394 36.7902 98.7281C35.8063 98.7447 34.832 98.7525 33.8699 98.7525Z" fill="#91C0F1"/>
</g>
<defs>
<clipPath id="clip0_6_260">
<rect width="100" height="100" fill="white"/>
</clipPath>
</defs>
</svg>
