<svg width="28" height="28" viewBox="0 0 28 28" fill="none" xmlns="http://www.w3.org/2000/svg">
<path d="M7.17432 5.84951C6.70802 5.84725 6.34089 5.87402 5.9165 6.17764C5.57322 6.42324 5.472 7.26212 6.02588 7.69522L12.9302 13.0956C13.2106 13.3149 13.5767 13.4237 13.9419 13.4237C14.307 13.4237 14.6731 13.3149 14.9536 13.0956L21.8579 7.69522C22.4118 7.26212 22.3106 6.42324 21.9673 6.17764C21.5429 5.87402 21.1756 5.83584 20.7095 5.84951C15.9791 5.98827 12.1212 5.87355 7.17432 5.84951ZM24.2095 8.65225L15.3364 15.5976C14.5582 16.2061 13.3051 16.2061 12.5269 15.5976L3.66748 8.67276C2.83652 8.82524 2.21143 9.55324 2.21143 10.4296V20.3144C2.21143 21.3022 3.00772 22.0985 3.99561 22.0985H24.0044C24.9923 22.0985 25.7886 21.3022 25.7886 20.3144V10.4296C25.7886 9.51041 25.101 8.75246 24.2095 8.65225Z" fill="#FFC700"/>
</svg>
