<svg width="94" height="102" viewBox="0 0 94 102" fill="none" xmlns="http://www.w3.org/2000/svg">
<g filter="url(#filter0_d_6_300)">
<path d="M88.2138 50C88.2138 55.7577 87.1477 61.459 85.0766 66.7785C83.0054 72.0979 79.9696 76.9313 76.1425 81.0026C72.3155 85.0739 67.7721 88.3035 62.7718 90.5069C57.7715 92.7102 52.4123 93.8443 47 93.8443C41.5877 93.8443 36.2285 92.7102 31.2282 90.5069C26.2279 88.3035 21.6845 85.0739 17.8575 81.0026C14.0304 76.9313 10.9946 72.0979 8.92346 66.7785C6.85228 61.459 5.78625 55.7577 5.78625 50C5.78625 38.3717 10.1284 27.2197 17.8575 18.9973C25.5866 10.7749 36.0694 6.15561 47 6.15561C57.9306 6.15561 68.4135 10.7749 76.1425 18.9973C83.8716 27.2197 88.2138 38.3717 88.2138 50Z" fill="#80DEEA"/>
<path fill-rule="evenodd" clip-rule="evenodd" d="M14.4957 39.3389L5.85538 48.5307C5.82463 49.02 5.80156 49.5099 5.78625 50.0001C5.78627 74.2146 24.2383 93.8444 47 93.8444C62.6825 93.8217 76.9938 84.3325 83.9202 69.3643L61.1243 42.295L46.3325 58.8932L14.4957 39.3389Z" fill="#009688"/>
<path d="M56.8246 41.4596C56.8246 42.9608 56.264 44.4005 55.2662 45.462C54.2684 46.5235 52.9151 47.1198 51.504 47.1198C50.8053 47.1198 50.1135 46.9734 49.4679 46.6889C48.8224 46.4045 48.2359 45.9876 47.7418 45.462C47.2478 44.9364 46.8559 44.3124 46.5885 43.6257C46.3211 42.939 46.1835 42.2029 46.1835 41.4596C46.1835 40.7163 46.3211 39.9803 46.5885 39.2936C46.8559 38.6069 47.2478 37.9829 47.7418 37.4573C48.2359 36.9317 48.8224 36.5148 49.4679 36.2304C50.1135 35.9459 50.8053 35.7995 51.504 35.7995C52.9151 35.7995 54.2684 36.3958 55.2662 37.4573C56.264 38.5188 56.8246 39.9585 56.8246 41.4596Z" fill="#FFF59D"/>
<path fill-rule="evenodd" clip-rule="evenodd" d="M38.025 28L7.52002 62.1402C9.91285 71.3269 14.9026 79.3977 21.7408 85.142C28.579 90.8862 36.8971 93.9943 45.4472 94C54.1944 93.9875 62.6908 90.7283 69.6057 84.7329C76.5206 78.7376 81.4634 70.3448 83.66 60.8689L63.5929 38.4104L57.6393 49.9512L38.025 28Z" fill="#FFC700"/>
</g>
<defs>
<filter id="filter0_d_6_300" x="-4" y="0" width="102" height="108" filterUnits="userSpaceOnUse" color-interpolation-filters="sRGB">
<feFlood flood-opacity="0" result="BackgroundImageFix"/>
<feColorMatrix in="SourceAlpha" type="matrix" values="0 0 0 0 0 0 0 0 0 0 0 0 0 0 0 0 0 0 127 0" result="hardAlpha"/>
<feOffset dy="4"/>
<feGaussianBlur stdDeviation="2"/>
<feComposite in2="hardAlpha" operator="out"/>
<feColorMatrix type="matrix" values="0 0 0 0 0 0 0 0 0 0 0 0 0 0 0 0 0 0 0.25 0"/>
<feBlend mode="normal" in2="BackgroundImageFix" result="effect1_dropShadow_6_300"/>
<feBlend mode="normal" in="SourceGraphic" in2="effect1_dropShadow_6_300" result="shape"/>
</filter>
</defs>
</svg>
