<svg width="31" height="30" viewBox="0 0 31 30" fill="none" xmlns="http://www.w3.org/2000/svg">
<g clip-path="url(#clip0_1_245)">
<path fill-rule="evenodd" clip-rule="evenodd" d="M15.253 0C23.5375 0 30.253 6.88489 30.253 15.3794C30.253 22.1729 25.96 27.9359 20.0035 29.9714C19.243 30.1229 18.973 29.6427 18.973 29.2332C18.973 28.7262 18.991 27.0702 18.991 25.0122C18.991 23.5782 18.511 22.6423 17.9725 22.1653C21.313 21.7843 24.823 20.4837 24.823 14.5767C24.823 12.8967 24.241 11.5257 23.278 10.4487C23.434 10.0602 23.9485 8.49593 23.131 6.37793C23.131 6.37793 21.874 5.96583 19.0105 7.95483C17.812 7.61433 16.528 7.44301 15.253 7.43701C13.978 7.44301 12.6955 7.61433 11.4985 7.95483C8.63199 5.96583 7.37199 6.37793 7.37199 6.37793C6.55749 8.49593 7.07199 10.0602 7.22649 10.4487C6.26799 11.5257 5.6815 12.8967 5.6815 14.5767C5.6815 20.4687 9.184 21.7892 12.5155 22.1777C12.0865 22.5617 11.698 23.2391 11.563 24.2336C10.708 24.6266 8.53599 25.3068 7.19799 22.9563C7.19799 22.9563 6.40449 21.4786 4.89849 21.3706C4.89849 21.3706 3.43599 21.3512 4.79649 22.3052C4.79649 22.3052 5.77899 22.7777 6.46149 24.5552C6.46149 24.5552 7.342 27.3001 11.515 26.3701C11.5225 27.6556 11.536 28.8672 11.536 29.2332C11.536 29.6397 11.26 30.1154 10.5115 29.9729C4.55049 27.9404 0.252991 22.1744 0.252991 15.3794C0.252991 6.88489 6.96999 0 15.253 0Z" fill="#FFC700"/>
</g>
<defs>
<clipPath id="clip0_1_245">
<rect width="30" height="30" fill="white" transform="translate(0.252991)"/>
</clipPath>
</defs>
</svg>
