<svg width="31" height="31" viewBox="0 0 31 31" fill="none" xmlns="http://www.w3.org/2000/svg">
<path d="M15.0223 2.82941C19.0272 2.79549 19.5023 2.80647 21.0841 2.86558C22.7197 2.92673 24.4065 3.28495 25.6078 4.46607C26.8205 5.65835 27.1958 7.32273 27.2847 8.96204C27.3706 10.5426 27.3896 11.0175 27.4235 15.0223C27.4575 19.0272 27.4465 19.5023 27.3874 21.0841C27.3274 22.7109 26.9606 24.4141 25.7869 25.6078C24.5946 26.8205 22.9315 27.1958 21.2909 27.2847C19.7103 27.3706 19.2355 27.3896 15.2306 27.4235C11.2258 27.4574 10.7507 27.4465 9.16885 27.3874C7.55453 27.3273 5.82879 26.9519 4.64514 25.7869C3.4388 24.6008 3.05705 22.9202 2.96825 21.2909C2.88237 19.7103 2.86334 19.2355 2.82943 15.2306C2.79551 11.2257 2.80649 10.7506 2.8656 9.16883C2.92562 7.54826 3.29613 5.83507 4.46609 4.64512C5.65589 3.435 7.3265 3.05709 8.96206 2.96823C10.5426 2.88234 11.0175 2.86332 15.0223 2.82941ZM14.9995 0.127004C10.9259 0.161502 10.4148 0.18333 8.81545 0.269377C6.49768 0.395259 4.20072 1.05973 2.53873 2.75012C0.870537 4.44681 0.251266 6.74963 0.164645 9.06795C0.105697 10.6685 0.0925267 11.1799 0.127024 15.2535C0.161522 19.3271 0.183351 19.8382 0.269398 21.4375C0.395258 23.7528 1.06229 26.056 2.75014 27.7142C4.44557 29.3812 6.75215 30.0017 9.06797 30.0883C10.6685 30.1473 11.1799 30.1604 15.2535 30.1259C19.3271 30.0914 19.8382 30.0696 21.4375 29.9836C23.754 29.8577 26.0535 29.1919 27.7142 27.5028C29.3837 25.8049 30.0017 23.5033 30.0883 21.185C30.1473 19.5844 30.1604 19.073 30.1259 14.9994C30.0914 10.9258 30.0696 10.4148 29.9836 8.81543C29.8577 6.49766 29.192 4.19946 27.5028 2.53871C25.8099 0.874234 23.4971 0.250048 21.185 0.164624C19.5844 0.105676 19.0731 0.0925062 14.9995 0.127004Z" fill="#FFC700"/>
<path d="M15.0613 7.42421C10.8077 7.46024 7.38824 10.9381 7.42427 15.1917C7.46029 19.4453 10.9381 22.8647 15.1917 22.8287C19.4453 22.7926 22.8647 19.3148 22.8287 15.0612C22.7927 10.8076 19.3149 7.38819 15.0613 7.42421ZM15.1688 20.1263C12.4077 20.1496 10.1501 17.9299 10.1267 15.1688C10.1033 12.4076 12.323 10.15 15.0841 10.1266C17.8453 10.1032 20.1029 12.3229 20.1263 15.0841C20.1497 17.8452 17.93 20.1029 15.1688 20.1263Z" fill="#FFC700"/>
<path d="M23.0811 8.85135C24.0752 8.84293 24.8742 8.03025 24.8658 7.03617C24.8574 6.0421 24.0447 5.24306 23.0506 5.25148C22.0566 5.2599 21.2575 6.07258 21.2659 7.06666C21.2744 8.06074 22.087 8.85977 23.0811 8.85135Z" fill="#FFC700"/>
</svg>
