<svg width="80" height="81" viewBox="0 0 80 81" fill="none" xmlns="http://www.w3.org/2000/svg">
<g filter="url(#filter0_d_1_110)">
<path d="M4 65.8125C4 67.2098 5.008 68.3438 6.25 68.3438H73.75C74.992 68.3438 76 67.2098 76 65.8125V20.25C76 18.8527 74.992 17.7188 73.75 17.7188H26.5V12.6562C26.5 11.259 25.492 10.125 24.25 10.125H13C11.758 10.125 10.75 11.259 10.75 12.6562V17.7188H6.25C5.008 17.7188 4 18.8527 4 20.25V65.8125ZM15.25 15.1875H22V17.7188H15.25V15.1875ZM8.5 22.7812H71.5V63.2812H8.5V22.7812Z" fill="#FFB700"/>
<path d="M49 27.8438C41.5559 27.8438 35.5 34.6566 35.5 43.0312C35.5 51.4059 41.5559 58.2188 49 58.2188C56.4441 58.2188 62.5 51.4059 62.5 43.0312C62.5 34.6566 56.4441 27.8438 49 27.8438ZM49 53.1562C44.0376 53.1562 40 48.6139 40 43.0312C40 37.4486 44.0376 32.9062 49 32.9062C53.9624 32.9062 58 37.4486 58 43.0312C58 48.6139 53.9624 53.1562 49 53.1562Z" fill="#FFB700"/>
<path d="M22 29.1094H15.25C14.008 29.1094 13 30.2434 13 31.6406C13 33.0379 14.008 34.1719 15.25 34.1719H22C23.242 34.1719 24.25 33.0379 24.25 31.6406C24.25 30.2434 23.242 29.1094 22 29.1094Z" fill="#FFB700"/>
</g>
<defs>
<filter id="filter0_d_1_110" x="0" y="0" width="80" height="89" filterUnits="userSpaceOnUse" color-interpolation-filters="sRGB">
<feFlood flood-opacity="0" result="BackgroundImageFix"/>
<feColorMatrix in="SourceAlpha" type="matrix" values="0 0 0 0 0 0 0 0 0 0 0 0 0 0 0 0 0 0 127 0" result="hardAlpha"/>
<feOffset dy="4"/>
<feGaussianBlur stdDeviation="2"/>
<feComposite in2="hardAlpha" operator="out"/>
<feColorMatrix type="matrix" values="0 0 0 0 0 0 0 0 0 0 0 0 0 0 0 0 0 0 0.25 0"/>
<feBlend mode="normal" in2="BackgroundImageFix" result="effect1_dropShadow_1_110"/>
<feBlend mode="normal" in="SourceGraphic" in2="effect1_dropShadow_1_110" result="shape"/>
</filter>
</defs>
</svg>
